# xmcd CD database file
#
# Track frame offsets:
#	150
#	26585
#	73707
#	90917
#	137592
#	162747
#	200370
#	221567
#	277682
#
# Disc length: 4106 seconds
#
# Revision: 0
# Processed by: cddbd v1.5.1PL0 Copyright (c) Steve Scherf et al.
# Submitted via: CDex 1.51
#
DISCID=79100809
DTITLE=Charlie Mingus - Tijuana Moods
DYEAR=1900
DGENRE=Jazz
TTITLE0=Dizzy Moods
TTITLE1=Ysabel's Table Dance
TTITLE2=Tijuana Gift Shop
TTITLE3=Los Mariachis
TTITLE4=Flamingo
TTITLE5=Dizzy Moods (alt. take)
TTITLE6=Tijuana Gift Shop (alt. take)
TTITLE7=Los Mariachis (alt.take)
TTITLE8=Flamingo (alt. take)
EXTD=
EXTT0=
EXTT1=
EXTT2=
EXTT3=
EXTT4=
EXTT5=
EXTT6=
EXTT7=
EXTT8=
PLAYORDER=
